<svg width="800" height="803" xmlns="http://www.w3.org/2000/svg" version="1.1">

 <g>
  <title>Layer 1</title>
  <g stroke="null" id="surface1">
   <path stroke="null" id="svg_1" fill="rgb(0%,0%,0%)" fill-rule="nonzero" d="m410.0728,412.09164c-24.85156,0 -50.69921,-2.32031 -66.60546,-15.90625c-13.25782,-10.27344 -20.55079,-22.20313 -28.16797,-35.78906c-2.65235,-4.3086 -50.03907,-90.79688 -52.69141,-95.4375l-201.14062,0c24.85156,45.40234 49.70312,91.46093 74.88671,136.52734c21.8711,39.76562 42.7461,76.88281 80.85547,104.05469c18.22657,13.58203 37.44532,22.53125 59.98047,28.16406c22.20313,5.30469 44.73438,5.96484 67.59766,5.96484l178.94531,0l-70.25,-127.57812"/>
   <path stroke="null" id="svg_2" fill="rgb(0%,0%,0%)" fill-rule="nonzero" d="m480.65484,411.75961l70.2539,127.91015l216.71485,0l-70.58204,-127.91015l-216.38671,0zm0,0"/>
   <path stroke="null" id="svg_3" fill="rgb(0%,0%,0%)" fill-rule="nonzero" d="m686.10405,391.21273l-70.2539,-127.24609l-216.71875,0l69.92578,127.24609l217.04687,0zm0,0"/>
  </g>
 </g>
</svg>